<?xml version="1.0" encoding="UTF-8"?>
<svg version="1.1" xmlns="http://www.w3.org/2000/svg" width="512" height="512">
<path d="M0 0 C5.80766665 5.80766665 7.37299839 11.82871031 7.38142776 19.8418541 C7.3834804 20.50591519 7.38553303 21.16997627 7.38764787 21.85416043 C7.3933221 24.08913248 7.3918601 26.324043 7.39044189 28.559021 C7.39302529 30.17369414 7.39603837 31.78836665 7.3994453 33.40303826 C7.40752157 37.84797609 7.40930522 42.29289778 7.41004276 46.73784208 C7.41189222 51.52870334 7.419439 56.31955619 7.42617798 61.1104126 C7.43976614 71.58971637 7.44578673 82.06901633 7.45018864 92.54832745 C7.45295016 99.09000162 7.45718734 105.6316743 7.46169281 112.17334747 C7.47388595 130.28069338 7.48418528 148.3880381 7.4875679 166.49538803 C7.48789725 168.23411398 7.48789725 168.23411398 7.48823325 170.0079657 C7.48845153 171.16990924 7.48866981 172.33185277 7.4888947 173.52900672 C7.48933817 175.88359563 7.48978473 178.23818453 7.49023438 180.59277344 C7.49056652 182.34471419 7.49056652 182.34471419 7.49090537 184.13204768 C7.49485402 203.06039611 7.5123099 221.98870605 7.5355939 240.9170396 C7.55929911 260.34437959 7.57176937 279.77170027 7.57293582 299.19905496 C7.57385303 310.10926423 7.57961698 321.01942336 7.59775543 331.92961884 C7.61314518 341.21929764 7.61828352 350.5089108 7.61001733 359.79859993 C7.60610688 364.538792 7.6070597 369.27885185 7.62107468 374.01902771 C7.63378978 378.3592227 7.63263713 382.69918578 7.62048396 387.03938034 C7.61852282 388.60870853 7.62162464 390.17805301 7.63032833 391.74735829 C7.72058751 409.12281485 7.72058751 409.12281485 1.9375 416 C-4.24847595 421.17895661 -8.50054471 423.64389837 -16.6171875 423.44921875 C-29.20748958 422.27320152 -37.71930005 410.46781858 -45.53027344 401.61523438 C-47.22636153 399.71645859 -48.92451787 397.8195288 -50.62445068 395.92419434 C-51.06570833 395.43196349 -51.50696597 394.93973265 -51.96159506 394.43258572 C-58.23811195 387.44979609 -64.68514167 380.62414561 -71.12719345 373.79439545 C-76.32959573 368.26945544 -81.46137219 362.70182301 -86.4609375 356.9921875 C-112.66969019 326.40676973 -112.66969019 326.40676973 -149.50107431 314.08864689 C-160.80316065 313.51797283 -172.22552965 314.16833493 -183.44721222 315.55601501 C-194.91536509 316.91683766 -203.43211493 313.95582221 -212.75 307.25 C-221.98272244 299.90653571 -226.96681751 289.78951859 -228.75 278.25 C-229.03357512 273.74912235 -229.03367214 269.25946069 -229.0246582 264.75073242 C-229.0290138 263.40928364 -229.03419975 262.06783733 -229.04014587 260.72639465 C-229.05345767 257.10637423 -229.05412321 253.48645871 -229.05158257 249.8664186 C-229.0505073 246.83250391 -229.05541051 243.79860997 -229.060188 240.76469976 C-229.07125665 233.59987172 -229.07173584 226.43509611 -229.06567383 219.27026367 C-229.05963899 211.90677337 -229.07193862 204.54347438 -229.0932439 197.1800167 C-229.11092475 190.83319109 -229.11685099 184.48642602 -229.11360615 178.13957673 C-229.11180309 174.35990172 -229.11433072 170.58036313 -229.12832069 166.80071068 C-229.14100022 163.24239092 -229.13886068 159.68436676 -229.12590981 156.12605095 C-229.12245936 154.21760138 -229.13364759 152.30914234 -229.14547729 150.40072632 C-229.06023916 136.24795365 -225.80289379 124.72001106 -216.25 114.0625 C-210.11556742 108.22470342 -201.1638498 103.46152613 -192.75 102.25 C-190.15413475 102.42655563 -190.15413475 102.42655563 -187.33798218 102.83416748 C-165.07101032 105.71200541 -138.91600886 108.70734762 -119.8363533 94.62000275 C-105.85597724 83.67971749 -93.90294664 70.19583966 -82.19846797 56.92246962 C-76.26689936 50.20899161 -70.12062011 43.70219053 -63.97265625 37.1875 C-57.69378301 30.52296745 -51.4360975 23.84543873 -45.31265259 17.03741455 C-44.61159303 16.26084417 -44.61159303 16.26084417 -43.89637065 15.46858549 C-41.72022529 13.05804255 -39.5530393 10.64081147 -37.402771 8.2071228 C-26.67205552 -3.70567849 -14.6302738 -9.31017423 0 0 Z M-40.41142273 73.80462646 C-41.61367588 75.01010552 -42.8131245 76.21838496 -44.01049805 77.42871094 C-44.99112465 78.41393738 -44.99112465 78.41393738 -45.99156189 79.41906738 C-47.41732539 80.85200789 -48.84197432 82.28605801 -50.26566124 83.72106171 C-52.52044733 85.99317064 -54.77870426 88.26177373 -57.03804016 90.52935791 C-63.46374887 96.97957308 -69.88398573 103.43521335 -76.29956055 109.89550781 C-80.21920234 113.84197777 -84.14373636 117.78352781 -88.0712986 121.72211456 C-89.56707082 123.22408804 -91.0609437 124.72795553 -92.55286217 126.23375702 C-94.64484334 128.34501815 -96.74297143 130.44998814 -98.8425293 132.55371094 C-99.45523682 133.17518005 -100.06794434 133.79664917 -100.69921875 134.43695068 C-107.11365113 140.83693401 -112.16604783 144.33781389 -121.51635742 144.45532227 C-122.21057202 144.46535499 -122.90478662 144.47538771 -123.62003803 144.48572445 C-125.86514776 144.51708357 -128.11027517 144.54186986 -130.35546875 144.56640625 C-131.74239677 144.58481209 -133.12931915 144.6036489 -134.51623535 144.6229248 C-139.65659001 144.69134199 -144.79705299 144.7514143 -149.9375 144.8125 C-161.425625 144.956875 -172.91375 145.10125 -184.75 145.25 C-184.75 187.49 -184.75 229.73 -184.75 273.25 C-161.9832819 273.45997944 -161.9832819 273.45997944 -139.21630859 273.63793945 C-134.80004883 273.68786621 -134.80004883 273.68786621 -132.72866821 273.7150116 C-131.2906487 273.73109742 -129.85255746 273.74142876 -128.41445923 273.74711609 C-126.22823075 273.75690287 -124.04292995 273.78529289 -121.85693359 273.81762695 C-120.01160538 273.83428154 -120.01160538 273.83428154 -118.1289978 273.85127258 C-105.48732998 275.34301062 -94.99044671 289.87859659 -86.4263134 298.4985218 C-84.42398152 300.51378231 -82.41839726 302.52575692 -80.41200256 304.53697205 C-76.16765289 308.79264789 -71.92730578 313.05229785 -67.6875 317.3125 C-62.74034618 322.28326063 -57.79156245 327.25237647 -52.83859444 332.21734428 C-50.8594201 334.20301564 -48.88326883 336.19166278 -46.9072113 338.18043518 C-45.7064349 339.38484024 -44.50552005 340.58910729 -43.30444336 341.79321289 C-42.75335403 342.34946854 -42.20226471 342.90572418 -41.63447571 343.47883606 C-40.35848593 344.75500567 -39.05701535 346.0056248 -37.75 347.25 C-37.42 347.25 -37.09 347.25 -36.75 347.25 C-36.75 256.17 -36.75 165.09 -36.75 71.25 C-38.24460725 71.13458601 -38.24460725 71.13458601 -40.41142273 73.80462646 Z " fill="#0C99D2" transform="translate(270.75,46.75)"/>
<path d="M0 0 C2.09707283 1.23532023 3.80826727 2.56966403 5.6171875 4.19921875 C6.68839844 5.16408203 6.68839844 5.16408203 7.78125 6.1484375 C46.30082245 43.01338914 67.05480247 97.23074111 68.8359375 149.86328125 C69.65430187 187.21466657 61.54487969 224.32883927 43.6171875 257.19921875 C43.13813965 258.09495605 43.13813965 258.09495605 42.64941406 259.00878906 C34.32269221 274.52100694 23.74393176 288.55023706 11.9296875 301.57421875 C11.47795166 302.07453613 11.02621582 302.57485352 10.56079102 303.09033203 C5.5624461 308.51888868 1.0524815 312.77178741 -6.50390625 313.5 C-14.26110211 313.52741059 -18.92024166 313.08469445 -25.0078125 308.01171875 C-30.0917488 301.99126787 -32.10254423 296.83101783 -31.76171875 288.87109375 C-30.78560016 281.98794825 -27.27851326 277.79935946 -22.359375 273.15234375 C-18.31948262 269.16035523 -14.87244379 264.67030885 -11.3828125 260.19921875 C-10.5990625 259.20535156 -9.8153125 258.21148437 -9.0078125 257.1875 C17.60227979 222.37482127 28.1802437 176.29405625 22.84741211 133.09179688 C17.62669309 97.92819113 2.0109719 66.95644312 -21.40234375 40.57421875 C-22.39591978 39.4492951 -23.38941265 38.32429798 -24.3828125 37.19921875 C-24.85380371 36.67328125 -25.32479492 36.14734375 -25.81005859 35.60546875 C-30.70271187 29.99135946 -31.91576963 25.43257701 -31.7578125 18.1171875 C-31.02897257 12.44590176 -28.7645134 7.46626447 -24.59765625 3.5 C-17.65304483 -1.64579488 -8.23747901 -2.76833311 0 0 Z " fill="#0C99D3" transform="translate(401.3828125,99.80078125)"/>
<path d="M0 0 C20.97628276 12.3038074 33.78819433 41.20400976 39.9375 63.625 C40.44603516 65.38650391 40.44603516 65.38650391 40.96484375 67.18359375 C45.32585951 85.53201491 45.16020031 109.5342016 39.9375 127.625 C39.74945801 128.31062012 39.56141602 128.99624023 39.36767578 129.70263672 C33.05635631 152.32196388 20.27541518 176.56106169 0.9375 190.625 C-5.168548 193.47990763 -11.38254712 193.79092567 -17.82421875 191.75 C-23.40386484 189.21455544 -27.58274507 186.34668561 -30.0625 180.625 C-32.17503881 173.7975195 -32.56345795 168.33211449 -30.0625 161.625 C-27.84926672 157.55265076 -24.97358576 154.46563108 -21.8125 151.125 C-7.42608745 135.34253755 -0.22229997 113.40373157 -0.77734375 92.19140625 C-2.45361944 71.22647883 -10.30943454 53.50953686 -24.0625 37.625 C-29.06040417 31.80618403 -31.92230527 27.56002155 -32.0625 19.625 C-31.48380601 13.38796477 -29.67877735 7.99204172 -25.0625 3.625 C-17.53803349 -1.73991745 -8.7374303 -3.67429161 0 0 Z " fill="#0C99D3" transform="translate(341.0625,160.375)"/>
</svg>
